<?xml version="1.0" encoding="UTF-8" standalone="no"?>
<!DOCTYPE svg PUBLIC "-//W3C//DTD SVG 1.1//EN"
 "http://www.w3.org/Graphics/SVG/1.1/DTD/svg11.dtd">
<!-- Generated by graphviz version 2.38.0 (20140413.2041)
 -->
<!-- Title: %3 Pages: 1 -->
<svg width="1745pt" height="460pt"
 viewBox="0.00 0.00 1745.22 460.00" xmlns="http://www.w3.org/2000/svg" xmlns:xlink="http://www.w3.org/1999/xlink">
<g id="graph0" class="graph" transform="scale(1 1) rotate(0) translate(4 456)">
<title>%3</title>
<polygon fill="white" stroke="none" points="-4,4 -4,-456 1741.22,-456 1741.22,4 -4,4"/>
<!-- Rhttp://insa&#45;lyon.fr/ue#alia -->
<g id="node1" class="node"><title>Rhttp://insa&#45;lyon.fr/ue#alia</title>
<g id="a_node1"><a xlink:href="http://insa-lyon.fr/ue#alia" xlink:title="http://insa&#45;lyon.fr/ue#alia">
<ellipse fill="none" stroke="blue" cx="129.988" cy="-251.5" rx="129.977" ry="18"/>
<text text-anchor="middle" x="129.988" y="-247.8" font-family="Times,serif" font-size="14.00">http://insa&#45;lyon.fr/ue#alia</text>
</a>
</g>
</g>
<!-- Rhttp://insa&#45;lyon.fr/formation#4if -->
<g id="node2" class="node"><title>Rhttp://insa&#45;lyon.fr/formation#4if</title>
<g id="a_node2"><a xlink:href="http://insa-lyon.fr/formation#4if" xlink:title="http://insa&#45;lyon.fr/formation#4if">
<ellipse fill="none" stroke="blue" cx="747.988" cy="-178" rx="159.472" ry="18"/>
<text text-anchor="middle" x="747.988" y="-174.3" font-family="Times,serif" font-size="14.00">http://insa&#45;lyon.fr/formation#4if</text>
</a>
</g>
</g>
<!-- Rhttp://insa&#45;lyon.fr/ue#alia&#45;&gt;Rhttp://insa&#45;lyon.fr/formation#4if -->
<g id="edge1" class="edge"><title>Rhttp://insa&#45;lyon.fr/ue#alia&#45;&gt;Rhttp://insa&#45;lyon.fr/formation#4if</title>
<path fill="none" stroke="black" d="M220.014,-238.507C236.299,-236.525 253.138,-234.599 268.988,-233 374.092,-222.399 401.011,-226.779 505.988,-215 554.454,-209.562 608.125,-201.76 652.583,-194.809"/>
<polygon fill="black" stroke="black" points="653.171,-198.26 662.506,-193.248 652.083,-191.345 653.171,-198.26"/>
</g>
<!-- Rhttp://insa&#45;lyon.fr/insa#informatique -->
<g id="node3" class="node"><title>Rhttp://insa&#45;lyon.fr/insa#informatique</title>
<g id="a_node3"><a xlink:href="http://insa-lyon.fr/insa#informatique" xlink:title="http://insa&#45;lyon.fr/insa#informatique">
<ellipse fill="none" stroke="blue" cx="1016.99" cy="-105" rx="180.868" ry="18"/>
<text text-anchor="middle" x="1016.99" y="-101.3" font-family="Times,serif" font-size="14.00">http://insa&#45;lyon.fr/insa#informatique</text>
</a>
</g>
</g>
<!-- Rhttp://insa&#45;lyon.fr/ue#alia&#45;&gt;Rhttp://insa&#45;lyon.fr/insa#informatique -->
<g id="edge2" class="edge"><title>Rhttp://insa&#45;lyon.fr/ue#alia&#45;&gt;Rhttp://insa&#45;lyon.fr/insa#informatique</title>
<path fill="none" stroke="black" d="M194.914,-235.838C282.134,-216.509 442.133,-182.347 579.988,-160 682.335,-143.409 798.897,-129.241 885.883,-119.585"/>
<polygon fill="black" stroke="black" points="886.519,-123.036 896.074,-118.459 885.75,-116.078 886.519,-123.036"/>
</g>
<!-- Rhttp://insa&#45;lyon.fr/formation#4if&#45;&gt;Rhttp://insa&#45;lyon.fr/insa#informatique -->
<g id="edge26" class="edge"><title>Rhttp://insa&#45;lyon.fr/formation#4if&#45;&gt;Rhttp://insa&#45;lyon.fr/insa#informatique</title>
<path fill="none" stroke="black" d="M807.688,-161.243C848.614,-150.441 903.087,-136.063 946.202,-124.683"/>
<polygon fill="black" stroke="black" points="947.283,-128.018 956.059,-122.082 945.496,-121.25 947.283,-128.018"/>
</g>
<!-- Rhttp://xmlns.com/foaf/spec/organization -->
<g id="node17" class="node"><title>Rhttp://xmlns.com/foaf/spec/organization</title>
<g id="a_node17"><a xlink:href="http://xmlns.com/foaf/spec/organization" xlink:title="http://xmlns.com/foaf/spec/organization">
<ellipse fill="none" stroke="blue" cx="1016.99" cy="-18" rx="194.965" ry="18"/>
<text text-anchor="middle" x="1016.99" y="-14.3" font-family="Times,serif" font-size="14.00">http://xmlns.com/foaf/spec/organization</text>
</a>
</g>
</g>
<!-- Rhttp://insa&#45;lyon.fr/insa#informatique&#45;&gt;Rhttp://xmlns.com/foaf/spec/organization -->
<g id="edge28" class="edge"><title>Rhttp://insa&#45;lyon.fr/insa#informatique&#45;&gt;Rhttp://xmlns.com/foaf/spec/organization</title>
<path fill="none" stroke="black" d="M1016.99,-86.799C1016.99,-75.1626 1016.99,-59.5479 1016.99,-46.2368"/>
<polygon fill="black" stroke="black" points="1020.49,-46.1754 1016.99,-36.1754 1013.49,-46.1755 1020.49,-46.1754"/>
<text text-anchor="middle" x="1045.99" y="-57.8" font-family="Times,serif" font-size="14.00">rdf:type</text>
</g>
<!-- Rhttp://insa&#45;lyon.fr/ue#se -->
<g id="node4" class="node"><title>Rhttp://insa&#45;lyon.fr/ue#se</title>
<g id="a_node4"><a xlink:href="http://insa-lyon.fr/ue#se" xlink:title="http://insa&#45;lyon.fr/ue#se">
<ellipse fill="none" stroke="blue" cx="472.988" cy="-251.5" rx="123.478" ry="18"/>
<text text-anchor="middle" x="472.988" y="-247.8" font-family="Times,serif" font-size="14.00">http://insa&#45;lyon.fr/ue#se</text>
</a>
</g>
</g>
<!-- Rhttp://insa&#45;lyon.fr/ue#se&#45;&gt;Rhttp://insa&#45;lyon.fr/formation#4if -->
<g id="edge3" class="edge"><title>Rhttp://insa&#45;lyon.fr/ue#se&#45;&gt;Rhttp://insa&#45;lyon.fr/formation#4if</title>
<path fill="none" stroke="black" d="M530.637,-235.511C573.483,-224.371 632.158,-209.116 677.747,-197.263"/>
<polygon fill="black" stroke="black" points="678.761,-200.616 687.559,-194.712 677,-193.841 678.761,-200.616"/>
</g>
<!-- Rhttp://insa&#45;lyon.fr/ue#se&#45;&gt;Rhttp://insa&#45;lyon.fr/insa#informatique -->
<g id="edge4" class="edge"><title>Rhttp://insa&#45;lyon.fr/ue#se&#45;&gt;Rhttp://insa&#45;lyon.fr/insa#informatique</title>
<path fill="none" stroke="black" d="M560.965,-238.772C575.983,-236.814 591.43,-234.826 605.988,-233 743.665,-215.727 789.481,-253.001 915.988,-196 948.837,-181.199 978.584,-151.82 997.152,-130.648"/>
<polygon fill="black" stroke="black" points="999.867,-132.859 1003.7,-122.984 994.546,-128.311 999.867,-132.859"/>
</g>
<!-- Rhttp://insa&#45;lyon.fr/ue#qual -->
<g id="node5" class="node"><title>Rhttp://insa&#45;lyon.fr/ue#qual</title>
<g id="a_node5"><a xlink:href="http://insa-lyon.fr/ue#qual" xlink:title="http://insa&#45;lyon.fr/ue#qual">
<ellipse fill="none" stroke="blue" cx="747.988" cy="-251.5" rx="133.477" ry="18"/>
<text text-anchor="middle" x="747.988" y="-247.8" font-family="Times,serif" font-size="14.00">http://insa&#45;lyon.fr/ue#qual</text>
</a>
</g>
</g>
<!-- Rhttp://insa&#45;lyon.fr/ue#qual&#45;&gt;Rhttp://insa&#45;lyon.fr/formation#4if -->
<g id="edge5" class="edge"><title>Rhttp://insa&#45;lyon.fr/ue#qual&#45;&gt;Rhttp://insa&#45;lyon.fr/formation#4if</title>
<path fill="none" stroke="black" d="M747.988,-233.192C747.988,-225.112 747.988,-215.301 747.988,-206.26"/>
<polygon fill="black" stroke="black" points="751.489,-206.149 747.988,-196.149 744.489,-206.149 751.489,-206.149"/>
</g>
<!-- Rhttp://insa&#45;lyon.fr/ue#qual&#45;&gt;Rhttp://insa&#45;lyon.fr/insa#informatique -->
<g id="edge6" class="edge"><title>Rhttp://insa&#45;lyon.fr/ue#qual&#45;&gt;Rhttp://insa&#45;lyon.fr/insa#informatique</title>
<path fill="none" stroke="black" d="M843.089,-238.851C895.89,-231.669 952.935,-222.442 962.988,-215 989.842,-195.122 1004.13,-158.185 1011.12,-132.865"/>
<polygon fill="black" stroke="black" points="1014.53,-133.692 1013.61,-123.136 1007.74,-131.956 1014.53,-133.692"/>
</g>
<!-- Rhttp://insa&#45;lyon.fr/ue#datamining -->
<g id="node6" class="node"><title>Rhttp://insa&#45;lyon.fr/ue#datamining</title>
<g id="a_node6"><a xlink:href="http://insa-lyon.fr/ue#datamining" xlink:title="http://insa&#45;lyon.fr/ue#datamining">
<ellipse fill="none" stroke="blue" cx="1058.99" cy="-306" rx="165.971" ry="18"/>
<text text-anchor="middle" x="1058.99" y="-302.3" font-family="Times,serif" font-size="14.00">http://insa&#45;lyon.fr/ue#datamining</text>
</a>
</g>
</g>
<!-- Rhttp://insa&#45;lyon.fr/ue#datamining&#45;&gt;Rhttp://insa&#45;lyon.fr/formation#4if -->
<g id="edge7" class="edge"><title>Rhttp://insa&#45;lyon.fr/ue#datamining&#45;&gt;Rhttp://insa&#45;lyon.fr/formation#4if</title>
<path fill="none" stroke="black" d="M1048.02,-287.935C1036.4,-271.287 1016.49,-246.549 992.988,-233 957.679,-212.647 915.45,-199.959 876.078,-192.05"/>
<polygon fill="black" stroke="black" points="876.616,-188.59 866.135,-190.141 875.295,-195.464 876.616,-188.59"/>
</g>
<!-- Rhttp://insa&#45;lyon.fr/ue#datamining&#45;&gt;Rhttp://insa&#45;lyon.fr/insa#informatique -->
<g id="edge8" class="edge"><title>Rhttp://insa&#45;lyon.fr/ue#datamining&#45;&gt;Rhttp://insa&#45;lyon.fr/insa#informatique</title>
<path fill="none" stroke="black" d="M1055.33,-287.688C1048.01,-252.979 1031.48,-174.66 1022.71,-133.096"/>
<polygon fill="black" stroke="black" points="1026.09,-132.192 1020.6,-123.13 1019.24,-133.637 1026.09,-132.192"/>
</g>
<!-- Rhttp://insa&#45;lyon.fr/etudiant#1234567 -->
<g id="node7" class="node"><title>Rhttp://insa&#45;lyon.fr/etudiant#1234567</title>
<g id="a_node7"><a xlink:href="http://insa-lyon.fr/etudiant#1234567" xlink:title="http://insa&#45;lyon.fr/etudiant#1234567">
<ellipse fill="none" stroke="blue" cx="262.988" cy="-360.5" rx="181.968" ry="18"/>
<text text-anchor="middle" x="262.988" y="-356.8" font-family="Times,serif" font-size="14.00">http://insa&#45;lyon.fr/etudiant#1234567</text>
</a>
</g>
</g>
<!-- Rhttp://insa&#45;lyon.fr/etudiant#1234567&#45;&gt;Rhttp://insa&#45;lyon.fr/ue#alia -->
<g id="edge9" class="edge"><title>Rhttp://insa&#45;lyon.fr/etudiant#1234567&#45;&gt;Rhttp://insa&#45;lyon.fr/ue#alia</title>
<path fill="none" stroke="black" d="M241.914,-342.546C219.54,-324.545 184.023,-295.971 159.01,-275.848"/>
<polygon fill="black" stroke="black" points="160.95,-272.917 150.964,-269.375 156.562,-278.371 160.95,-272.917"/>
</g>
<!-- Rhttp://insa&#45;lyon.fr/etudiant#1234567&#45;&gt;Rhttp://insa&#45;lyon.fr/ue#se -->
<g id="edge10" class="edge"><title>Rhttp://insa&#45;lyon.fr/etudiant#1234567&#45;&gt;Rhttp://insa&#45;lyon.fr/ue#se</title>
<path fill="none" stroke="black" d="M295.801,-342.781C332.509,-324.078 392.031,-293.75 431.83,-273.471"/>
<polygon fill="black" stroke="black" points="433.43,-276.584 440.751,-268.926 430.252,-270.347 433.43,-276.584"/>
</g>
<!-- LAlice -->
<g id="node8" class="node"><title>LAlice</title>
<polygon fill="none" stroke="black" points="277.988,-233.5 277.988,-269.5 331.988,-269.5 331.988,-233.5 277.988,-233.5"/>
<text text-anchor="middle" x="304.988" y="-247.8" font-family="Times,serif" font-size="14.00">Alice</text>
</g>
<!-- Rhttp://insa&#45;lyon.fr/etudiant#1234567&#45;&gt;LAlice -->
<g id="edge11" class="edge"><title>Rhttp://insa&#45;lyon.fr/etudiant#1234567&#45;&gt;LAlice</title>
<path fill="none" stroke="black" d="M269.736,-342.309C276.441,-325.227 286.816,-298.796 294.578,-279.023"/>
<polygon fill="black" stroke="black" points="297.861,-280.236 298.257,-269.649 291.345,-277.678 297.861,-280.236"/>
</g>
<!-- Rhttp://insa&#45;lyon.fr/etudiant#2345678 -->
<g id="node9" class="node"><title>Rhttp://insa&#45;lyon.fr/etudiant#2345678</title>
<g id="a_node9"><a xlink:href="http://insa-lyon.fr/etudiant#2345678" xlink:title="http://insa&#45;lyon.fr/etudiant#2345678">
<ellipse fill="none" stroke="blue" cx="1101.99" cy="-434" rx="181.968" ry="18"/>
<text text-anchor="middle" x="1101.99" y="-430.3" font-family="Times,serif" font-size="14.00">http://insa&#45;lyon.fr/etudiant#2345678</text>
</a>
</g>
</g>
<!-- Rhttp://insa&#45;lyon.fr/etudiant#2345678&#45;&gt;Rhttp://insa&#45;lyon.fr/ue#se -->
<g id="edge12" class="edge"><title>Rhttp://insa&#45;lyon.fr/etudiant#2345678&#45;&gt;Rhttp://insa&#45;lyon.fr/ue#se</title>
<path fill="none" stroke="black" d="M958.378,-422.937C850.102,-413.97 711.441,-399.144 657.988,-379 594.957,-355.246 532.572,-305.769 498.784,-276.222"/>
<polygon fill="black" stroke="black" points="501.03,-273.536 491.224,-269.524 496.388,-278.775 501.03,-273.536"/>
</g>
<!-- Rhttp://insa&#45;lyon.fr/etudiant#2345678&#45;&gt;Rhttp://insa&#45;lyon.fr/ue#datamining -->
<g id="edge13" class="edge"><title>Rhttp://insa&#45;lyon.fr/etudiant#2345678&#45;&gt;Rhttp://insa&#45;lyon.fr/ue#datamining</title>
<path fill="none" stroke="black" d="M1124.21,-416.082C1145.94,-397.439 1173.41,-366.806 1155.99,-342 1151.98,-336.291 1146.94,-331.509 1141.28,-327.504"/>
<polygon fill="black" stroke="black" points="1142.95,-324.42 1132.6,-322.174 1139.29,-330.387 1142.95,-324.42"/>
</g>
<!-- Rhttp://insa&#45;lyon.fr/etudiant#3456789 -->
<g id="node10" class="node"><title>Rhttp://insa&#45;lyon.fr/etudiant#3456789</title>
<g id="a_node10"><a xlink:href="http://insa-lyon.fr/etudiant#3456789" xlink:title="http://insa&#45;lyon.fr/etudiant#3456789">
<ellipse fill="none" stroke="blue" cx="848.988" cy="-360.5" rx="181.968" ry="18"/>
<text text-anchor="middle" x="848.988" y="-356.8" font-family="Times,serif" font-size="14.00">http://insa&#45;lyon.fr/etudiant#3456789</text>
</a>
</g>
</g>
<!-- Rhttp://insa&#45;lyon.fr/etudiant#2345678&#45;&gt;Rhttp://insa&#45;lyon.fr/etudiant#3456789 -->
<g id="edge14" class="edge"><title>Rhttp://insa&#45;lyon.fr/etudiant#2345678&#45;&gt;Rhttp://insa&#45;lyon.fr/etudiant#3456789</title>
<path fill="none" stroke="black" d="M1044.89,-416.865C1006.66,-406.059 956.165,-391.789 916.018,-380.443"/>
<polygon fill="black" stroke="black" points="916.887,-377.052 906.312,-377.7 914.983,-383.788 916.887,-377.052"/>
</g>
<!-- LBasile -->
<g id="node11" class="node"><title>LBasile</title>
<polygon fill="none" stroke="black" points="1086.99,-342.5 1086.99,-378.5 1146.99,-378.5 1146.99,-342.5 1086.99,-342.5"/>
<text text-anchor="middle" x="1116.99" y="-356.8" font-family="Times,serif" font-size="14.00">Basile</text>
</g>
<!-- Rhttp://insa&#45;lyon.fr/etudiant#2345678&#45;&gt;LBasile -->
<g id="edge15" class="edge"><title>Rhttp://insa&#45;lyon.fr/etudiant#2345678&#45;&gt;LBasile</title>
<path fill="none" stroke="black" d="M1105.62,-415.692C1107.33,-407.524 1109.42,-397.588 1111.33,-388.465"/>
<polygon fill="black" stroke="black" points="1114.76,-389.154 1113.39,-378.649 1107.91,-387.717 1114.76,-389.154"/>
</g>
<!-- Rhttp://insa&#45;lyon.fr/etudiant#3456789&#45;&gt;Rhttp://insa&#45;lyon.fr/ue#se -->
<g id="edge17" class="edge"><title>Rhttp://insa&#45;lyon.fr/etudiant#3456789&#45;&gt;Rhttp://insa&#45;lyon.fr/ue#se</title>
<path fill="none" stroke="black" d="M809.044,-342.854C769.851,-327.018 708.11,-303.389 652.988,-288 623.762,-279.84 591.36,-272.837 562.194,-267.26"/>
<polygon fill="black" stroke="black" points="562.498,-263.756 552.023,-265.347 561.204,-270.635 562.498,-263.756"/>
</g>
<!-- Rhttp://insa&#45;lyon.fr/etudiant#3456789&#45;&gt;Rhttp://insa&#45;lyon.fr/ue#qual -->
<g id="edge16" class="edge"><title>Rhttp://insa&#45;lyon.fr/etudiant#3456789&#45;&gt;Rhttp://insa&#45;lyon.fr/ue#qual</title>
<path fill="none" stroke="black" d="M832.761,-342.309C816.122,-324.681 790.084,-297.097 771.254,-277.148"/>
<polygon fill="black" stroke="black" points="773.585,-274.518 764.176,-269.649 768.495,-279.323 773.585,-274.518"/>
</g>
<!-- LCharlotte -->
<g id="node12" class="node"><title>LCharlotte</title>
<polygon fill="none" stroke="black" points="899.488,-233.5 899.488,-269.5 984.488,-269.5 984.488,-233.5 899.488,-233.5"/>
<text text-anchor="middle" x="941.988" y="-247.8" font-family="Times,serif" font-size="14.00">Charlotte</text>
</g>
<!-- Rhttp://insa&#45;lyon.fr/etudiant#3456789&#45;&gt;LCharlotte -->
<g id="edge18" class="edge"><title>Rhttp://insa&#45;lyon.fr/etudiant#3456789&#45;&gt;LCharlotte</title>
<path fill="none" stroke="black" d="M856.806,-342.285C864.345,-326.912 876.825,-304.361 891.988,-288 896.022,-283.648 900.669,-279.509 905.471,-275.695"/>
<polygon fill="black" stroke="black" points="907.704,-278.395 913.619,-269.605 903.514,-272.789 907.704,-278.395"/>
</g>
<!-- Rhttp://insa&#45;lyon.fr/etudiant#4567890 -->
<g id="node13" class="node"><title>Rhttp://insa&#45;lyon.fr/etudiant#4567890</title>
<g id="a_node13"><a xlink:href="http://insa-lyon.fr/etudiant#4567890" xlink:title="http://insa&#45;lyon.fr/etudiant#4567890">
<ellipse fill="none" stroke="blue" cx="504.988" cy="-434" rx="181.968" ry="18"/>
<text text-anchor="middle" x="504.988" y="-430.3" font-family="Times,serif" font-size="14.00">http://insa&#45;lyon.fr/etudiant#4567890</text>
</a>
</g>
</g>
<!-- Rhttp://insa&#45;lyon.fr/etudiant#4567890&#45;&gt;Rhttp://insa&#45;lyon.fr/ue#alia -->
<g id="edge19" class="edge"><title>Rhttp://insa&#45;lyon.fr/etudiant#4567890&#45;&gt;Rhttp://insa&#45;lyon.fr/ue#alia</title>
<path fill="none" stroke="black" d="M354.013,-423.888C236.704,-415.224 90.8236,-400.33 71.9885,-379 45.2384,-348.707 78.2089,-303.993 104.277,-276.637"/>
<polygon fill="black" stroke="black" points="106.871,-278.99 111.391,-269.408 101.882,-274.08 106.871,-278.99"/>
</g>
<!-- Rhttp://insa&#45;lyon.fr/etudiant#4567890&#45;&gt;Rhttp://insa&#45;lyon.fr/ue#se -->
<g id="edge20" class="edge"><title>Rhttp://insa&#45;lyon.fr/etudiant#4567890&#45;&gt;Rhttp://insa&#45;lyon.fr/ue#se</title>
<path fill="none" stroke="black" d="M500.385,-415.574C497.704,-405.037 494.389,-391.304 491.988,-379 485.366,-345.051 479.769,-305.587 476.401,-279.885"/>
<polygon fill="black" stroke="black" points="479.846,-279.24 475.097,-269.769 472.904,-280.134 479.846,-279.24"/>
</g>
<!-- Rhttp://insa&#45;lyon.fr/etudiant#4567890&#45;&gt;Rhttp://insa&#45;lyon.fr/ue#qual -->
<g id="edge22" class="edge"><title>Rhttp://insa&#45;lyon.fr/etudiant#4567890&#45;&gt;Rhttp://insa&#45;lyon.fr/ue#qual</title>
<path fill="none" stroke="black" d="M529.425,-415.921C544.393,-405.39 563.893,-391.544 580.988,-379 629.514,-343.395 685.083,-300.965 718.315,-275.41"/>
<polygon fill="black" stroke="black" points="720.475,-278.164 726.264,-269.291 716.205,-272.617 720.475,-278.164"/>
</g>
<!-- Rhttp://insa&#45;lyon.fr/etudiant#4567890&#45;&gt;Rhttp://insa&#45;lyon.fr/ue#datamining -->
<g id="edge21" class="edge"><title>Rhttp://insa&#45;lyon.fr/etudiant#4567890&#45;&gt;Rhttp://insa&#45;lyon.fr/ue#datamining</title>
<path fill="none" stroke="black" d="M667.49,-425.864C814.413,-417.925 1011.92,-402.963 1039.99,-379 1052.77,-368.087 1057.47,-349.691 1059,-334.226"/>
<polygon fill="black" stroke="black" points="1062.5,-334.309 1059.61,-324.115 1055.51,-333.885 1062.5,-334.309"/>
</g>
<!-- Rhttp://insa&#45;lyon.fr/etudiant#4567890&#45;&gt;Rhttp://insa&#45;lyon.fr/etudiant#1234567 -->
<g id="edge23" class="edge"><title>Rhttp://insa&#45;lyon.fr/etudiant#4567890&#45;&gt;Rhttp://insa&#45;lyon.fr/etudiant#1234567</title>
<path fill="none" stroke="black" d="M450.075,-416.776C413.847,-406.072 366.218,-392 328.084,-380.733"/>
<polygon fill="black" stroke="black" points="328.685,-377.261 318.103,-377.784 326.701,-383.974 328.685,-377.261"/>
</g>
<!-- LDamien -->
<g id="node14" class="node"><title>LDamien</title>
<polygon fill="none" stroke="black" points="501.488,-342.5 501.488,-378.5 572.488,-378.5 572.488,-342.5 501.488,-342.5"/>
<text text-anchor="middle" x="536.988" y="-356.8" font-family="Times,serif" font-size="14.00">Damien</text>
</g>
<!-- Rhttp://insa&#45;lyon.fr/etudiant#4567890&#45;&gt;LDamien -->
<g id="edge24" class="edge"><title>Rhttp://insa&#45;lyon.fr/etudiant#4567890&#45;&gt;LDamien</title>
<path fill="none" stroke="black" d="M512.735,-415.692C516.469,-407.348 521.029,-397.16 525.183,-387.878"/>
<polygon fill="black" stroke="black" points="528.423,-389.206 529.313,-378.649 522.034,-386.347 528.423,-389.206"/>
</g>
<!-- Rhttp://insa&#45;lyon.fr/formation#3if -->
<g id="node15" class="node"><title>Rhttp://insa&#45;lyon.fr/formation#3if</title>
<g id="a_node15"><a xlink:href="http://insa-lyon.fr/formation#3if" xlink:title="http://insa&#45;lyon.fr/formation#3if">
<ellipse fill="none" stroke="blue" cx="1241.99" cy="-178" rx="159.472" ry="18"/>
<text text-anchor="middle" x="1241.99" y="-174.3" font-family="Times,serif" font-size="14.00">http://insa&#45;lyon.fr/formation#3if</text>
</a>
</g>
</g>
<!-- Rhttp://insa&#45;lyon.fr/formation#3if&#45;&gt;Rhttp://insa&#45;lyon.fr/insa#informatique -->
<g id="edge25" class="edge"><title>Rhttp://insa&#45;lyon.fr/formation#3if&#45;&gt;Rhttp://insa&#45;lyon.fr/insa#informatique</title>
<path fill="none" stroke="black" d="M1190.93,-160.889C1157.51,-150.343 1113.65,-136.503 1078.34,-125.36"/>
<polygon fill="black" stroke="black" points="1079.21,-121.965 1068.62,-122.293 1077.1,-128.64 1079.21,-121.965"/>
</g>
<!-- Rhttp://insa&#45;lyon.fr/formation#5if -->
<g id="node16" class="node"><title>Rhttp://insa&#45;lyon.fr/formation#5if</title>
<g id="a_node16"><a xlink:href="http://insa-lyon.fr/formation#5if" xlink:title="http://insa&#45;lyon.fr/formation#5if">
<ellipse fill="none" stroke="blue" cx="1577.99" cy="-178" rx="159.472" ry="18"/>
<text text-anchor="middle" x="1577.99" y="-174.3" font-family="Times,serif" font-size="14.00">http://insa&#45;lyon.fr/formation#5if</text>
</a>
</g>
</g>
<!-- Rhttp://insa&#45;lyon.fr/formation#5if&#45;&gt;Rhttp://insa&#45;lyon.fr/insa#informatique -->
<g id="edge27" class="edge"><title>Rhttp://insa&#45;lyon.fr/formation#5if&#45;&gt;Rhttp://insa&#45;lyon.fr/insa#informatique</title>
<path fill="none" stroke="black" d="M1476.07,-164.101C1379.62,-151.894 1234.94,-133.584 1133.85,-120.791"/>
<polygon fill="black" stroke="black" points="1134.27,-117.315 1123.9,-119.531 1133.39,-124.259 1134.27,-117.315"/>
</g>
</g>
</svg>